<?xml version="1.0" encoding="utf-8"?>
<!-- Generator: Adobe Illustrator 26.3.1, SVG Export Plug-In . SVG Version: 6.00 Build 0)  -->
<svg version="1.1" id="图层_1" xmlns="http://www.w3.org/2000/svg" xmlns:xlink="http://www.w3.org/1999/xlink" x="0px" y="0px"
	 viewBox="0 0 426 142" style="enable-background:new 0 0 426 142;" xml:space="preserve">
<style type="text/css">
	.st0{fill:#142F55;}
</style>
<g>
	<g>
		<path class="st0" d="M207.8,45.3c-2.1-2.4-4.4-4.6-6.9-6.6c-5.3-4.1-11.4-7.1-18.1-8.6c-3.4-0.8-6.9-1.2-10.6-1.2
			c-2.6,0-5.1,0.2-7.5,0.6c-2.3,0.4-4.5,0.9-6.7,1.6c-4.1,1.3-7.9,3.1-11.4,5.4c-3.7,2.4-7.1,5.4-10,8.8c-2.9,3.4-5.3,7.1-7.1,11.2
			l0,0l-1,2.7l-1.4,3.9l-16.7,45.8l-8.8,24.3h19.3l7.6-21l4.1-11.3c3.6,5.7,8.4,10.5,14,14.2c5.4,3.5,11.5,6,18.1,7
			c2.4,0.4,5,0.6,7.5,0.6c3.6,0,7.2-0.4,10.6-1.2c6.7-1.5,12.8-4.5,18.1-8.6c10.3-8,17.2-20.1,18.1-33.9v-6.3
			C218.3,62.2,214.2,52.8,207.8,45.3z M182.8,100.9c-3.3,1.4-6.8,2.1-10.6,2.1c-2.6,0-5.1-0.4-7.5-1.1c-8.4-2.4-15.2-8.8-18.1-16.9
			c-1-2.9-1.6-6-1.6-9.3s0.6-6.4,1.6-9.3c3-8.2,9.7-14.5,18.1-16.9c2.4-0.7,4.9-1.1,7.5-1.1c3.8,0,7.3,0.8,10.6,2.1
			c9.8,4.1,16.7,13.8,16.7,25.1C199.5,87.1,192.6,96.8,182.8,100.9z"/>
	</g>
	<path class="st0" d="M273.9,28.8c-25.9,0-46.9,21-46.9,46.9s21,46.9,46.9,46.9s46.9-21,46.9-46.9S299.8,28.8,273.9,28.8z
		 M273.9,102.9c-15,0-27.2-12.2-27.2-27.2s12.2-27.2,27.2-27.2s27.2,12.2,27.2,27.2C301.2,90.7,289,102.9,273.9,102.9z"/>
	<g>
		<path class="st0" d="M398.5,62h21.3c-5.8-19.2-23.7-33.2-44.9-33.2c-0.9,0-1.8,0-2.7,0.1v19.7c0.9-0.1,1.8-0.1,2.7-0.1
			C385,48.4,393.8,53.9,398.5,62z M374.9,102.9c-0.9,0-1.8,0-2.7-0.1c-4.8-0.5-9.3-2.2-13-4.8c-1.6-1.2-3.1-2.5-4.5-4
			c-4.4-4.8-7.1-11.3-7.1-18.3c0-5,1.3-9.7,3.7-13.7H330c-1.3,4.3-2,8.9-2,13.7c0,6.5,1.3,12.7,3.7,18.3c5.1,12,15.1,21.5,27.5,25.9
			c4.1,1.5,8.5,2.4,13,2.6c0.9,0,1.8,0.1,2.7,0.1c19.4,0,36-11.8,43.2-28.6h-23C390.1,99.5,382.9,102.9,374.9,102.9z"/>
		<circle class="st0" cx="350.7" cy="42.2" r="11.5"/>
	</g>
	<g>
		<path class="st0" d="M88.1,30.2c8.9,0,13.4,10.8,7.1,17.1L66.4,76.1L52.2,90.3l-28,28c-1.9,1.9-4.4,2.9-7.1,2.9l0,0
			c-8.9,0-13.4-10.8-7.1-17.1l28-28L9.2,47.3C2.9,41,7.4,30.2,16.3,30.2l0,0c2.7,0,5.2,1.1,7.1,2.9L52.2,62L81,33.2
			C82.9,31.3,85.4,30.2,88.1,30.2L88.1,30.2z"/>
		<path class="st0" d="M87.2,121.2L87.2,121.2c-2.7,0-5.2-1.1-7.1-2.9l-21-21l14.2-14.2l21,21C100.6,110.5,96.1,121.2,87.2,121.2z"
			/>
	</g>
	<path class="st0" d="M177.5,21.3c-0.4-0.1-0.7-0.2-1.1-0.3c-2.8-0.7-5.8-1-8.9-1c-2.1,0-4.2,0.2-6.3,0.5c-1.9,0.3-3.8,0.7-5.6,1.3
		c-3.4,1.1-6.6,2.6-9.5,4.5c-3,1.9-5.6,4.3-8,6.9c-1.5-2.9-2.4-6.2-2.4-9.6c0-11.5,9.4-20.9,20.9-20.9
		C167.5,2.8,176.3,10.9,177.5,21.3z"/>
	<path class="st0" d="M269.8,21.3c0.4-0.1,0.7-0.2,1.1-0.3c2.8-0.7,5.8-1,8.9-1c2.1,0,4.2,0.2,6.3,0.5c1.9,0.3,3.8,0.7,5.6,1.3
		c3.4,1.1,6.6,2.6,9.5,4.5c3,1.9,5.6,4.3,8,6.9c1.5-2.9,2.4-6.2,2.4-9.6c0-11.5-9.4-20.9-20.9-20.9C279.8,2.8,271,10.9,269.8,21.3z"
		/>
	<path class="st0" d="M236.3,120.7c0,6.9-5.6,12.6-12.6,12.6c-6.9,0-12.6-5.6-12.6-12.6c0-0.2,0-0.3,0-0.5c3.2-2.4,7.6-3.9,12.6-3.9
		c4.9,0,9.4,1.5,12.6,3.9C236.3,120.3,236.3,120.5,236.3,120.7z"/>
</g>
</svg>
